<?xml version="1.0" encoding="UTF-8" standalone="no"?>
<svg id="main_logo_svg" xmlns="http://www.w3.org/2000/svg" xmlns:xlink="http://www.w3.org/1999/xlink">
<style>
/* #mainLogo {fill: #dddddd; stroke: #888888; stroke-width: 0.0; fill-opacity: 1.0;} */
</style>
<svg id="mainLogo" viewBox="8 114 175 175">
  <g x-id="g0" transform="rotate(0, 96, 201)">
    <path x-id="p0"
      d="m 74.195702,253.28586 c 11.335063,-21.5421 22.616945,-43.14261 34.114978,-64.61226 -21.478184,11.15 -42.77677,22.65957 -64.24768,33.80634 -11.553327,6.30244 -20.556557,0.56999 -19.139859,-9.35319 1.795241,-15.26362 3.524654,-29.76818 5.733724,-45.50847 1.295199,-9.42872 8.404885,-14.30958 16.169188,-11.55532 9.130042,3.87039 9.10452,11.02912 8.366607,17.98138 -0.61228,5.03423 -1.209582,10.69624 -1.777817,15.57323 27.355664,-14.19517 53.245827,-27.9693 79.922477,-42.15927 9.57554,-5.25019 21.3653,6.36102 15.93113,15.94364 -14.11848,27.69904 -29.00308,56.02163 -42.02502,80.33206 7.95347,-0.84368 16.62545,-3.45458 24.95106,-1.93594 7.91969,1.69416 11.47257,11.41793 7.54465,18.20228 -3.45843,6.80123 -12.09704,5.89728 -18.45704,7.39553 -11.61278,1.406 -23.152142,3.49922 -34.792393,4.58493 -12.181018,1.48486 -17.951401,-8.42585 -12.294005,-18.69494 z"
    ></path>
  </g>
</svg>
</svg>